<svg id="visual" viewBox="0 0 900 600" width="900" height="600" xmlns="http://www.w3.org/2000/svg" xmlns:xlink="http://www.w3.org/1999/xlink" version="1.1"><rect x="0" y="0" width="900" height="600" fill="#001220"></rect><path d="M0 362L30 367.3C60 372.7 120 383.3 180 388.7C240 394 300 394 360 400C420 406 480 418 540 413.5C600 409 660 388 720 383.3C780 378.7 840 390.3 870 396.2L900 402L900 601L870 601C840 601 780 601 720 601C660 601 600 601 540 601C480 601 420 601 360 601C300 601 240 601 180 601C120 601 60 601 30 601L0 601Z" fill="#fa7268"></path><path d="M0 425L30 418C60 411 120 397 180 396.8C240 396.7 300 410.3 360 418.5C420 426.7 480 429.3 540 427.5C600 425.7 660 419.3 720 421.7C780 424 840 435 870 440.5L900 446L900 601L870 601C840 601 780 601 720 601C660 601 600 601 540 601C480 601 420 601 360 601C300 601 240 601 180 601C120 601 60 601 30 601L0 601Z" fill="#f36567"></path><path d="M0 436L30 439.5C60 443 120 450 180 448.8C240 447.7 300 438.3 360 433.5C420 428.7 480 428.3 540 435.5C600 442.7 660 457.3 720 458C780 458.7 840 445.3 870 438.7L900 432L900 601L870 601C840 601 780 601 720 601C660 601 600 601 540 601C480 601 420 601 360 601C300 601 240 601 180 601C120 601 60 601 30 601L0 601Z" fill="#eb5967"></path><path d="M0 480L30 482.5C60 485 120 490 180 488.5C240 487 300 479 360 480.7C420 482.3 480 493.7 540 492.7C600 491.7 660 478.3 720 475.2C780 472 840 479 870 482.5L900 486L900 601L870 601C840 601 780 601 720 601C660 601 600 601 540 601C480 601 420 601 360 601C300 601 240 601 180 601C120 601 60 601 30 601L0 601Z" fill="#e34c67"></path><path d="M0 484L30 489.7C60 495.3 120 506.7 180 511C240 515.3 300 512.7 360 512.2C420 511.7 480 513.3 540 511.5C600 509.7 660 504.3 720 504.8C780 505.3 840 511.7 870 514.8L900 518L900 601L870 601C840 601 780 601 720 601C660 601 600 601 540 601C480 601 420 601 360 601C300 601 240 601 180 601C120 601 60 601 30 601L0 601Z" fill="#da3f67"></path><path d="M0 511L30 518.5C60 526 120 541 180 542.7C240 544.3 300 532.7 360 525.7C420 518.7 480 516.3 540 521C600 525.7 660 537.3 720 542C780 546.7 840 544.3 870 543.2L900 542L900 601L870 601C840 601 780 601 720 601C660 601 600 601 540 601C480 601 420 601 360 601C300 601 240 601 180 601C120 601 60 601 30 601L0 601Z" fill="#d03267"></path><path d="M0 549L30 553.7C60 558.3 120 567.7 180 568.2C240 568.7 300 560.3 360 557.3C420 554.3 480 556.7 540 557.5C600 558.3 660 557.7 720 557.2C780 556.7 840 556.3 870 556.2L900 556L900 601L870 601C840 601 780 601 720 601C660 601 600 601 540 601C480 601 420 601 360 601C300 601 240 601 180 601C120 601 60 601 30 601L0 601Z" fill="#c62368"></path></svg>